<?xml version="1.0" encoding="UTF-8"?>
<svg xmlns="http://www.w3.org/2000/svg" viewBox="0 0 1073 613">
  <defs>
    <style>
      .cls-1 {
        fill: none;
        stroke: #000;
        stroke-miterlimit: 10;
        stroke-width: 2px;
      }
    </style>
  </defs>
  <g id="Capa_1" data-name="Capa 1">
    <g>
      <path d="M132.26,408.5c-2.61,0-4.95-.46-7-1.38-2.06-.92-3.68-2.33-4.86-4.23-1.19-1.9-1.78-4.31-1.78-7.24v-.99h3.34v.99c0,3.38.97,5.88,2.9,7.5,1.93,1.62,4.4,2.43,7.4,2.43s5.37-.71,7-2.12c1.64-1.41,2.46-3.21,2.46-5.41,0-1.46-.36-2.64-1.07-3.53-.71-.89-1.71-1.6-2.98-2.14-1.27-.54-2.74-1.02-4.42-1.44l-3.35-.84c-1.99-.52-3.76-1.18-5.33-1.96-1.57-.78-2.8-1.81-3.71-3.08-.91-1.27-1.36-2.9-1.36-4.89s.51-3.71,1.54-5.17c1.03-1.46,2.45-2.59,4.26-3.37,1.81-.78,3.92-1.18,6.32-1.18s4.57.42,6.51,1.25,3.47,2.06,4.6,3.68c1.13,1.62,1.7,3.65,1.7,6.09v2.46h-3.34v-2.46c0-1.92-.42-3.47-1.25-4.65-.84-1.18-1.97-2.06-3.4-2.61-1.43-.56-3.03-.84-4.81-.84-2.54,0-4.64.58-6.3,1.75s-2.48,2.85-2.48,5.04c0,1.46.34,2.63,1.02,3.5.68.87,1.64,1.57,2.87,2.09,1.24.52,2.69.99,4.36,1.41l3.35.84c1.92.45,3.68,1.05,5.28,1.8s2.89,1.78,3.87,3.08c.97,1.31,1.46,3.02,1.46,5.15s-.53,3.97-1.59,5.54c-1.06,1.57-2.55,2.78-4.47,3.63-1.92.85-4.16,1.28-6.74,1.28Z"/>
      <path d="M164.3,408.5c-2.61,0-4.89-.55-6.82-1.65s-3.44-2.64-4.52-4.62-1.62-4.27-1.62-6.85v-.63c0-2.61.54-4.9,1.62-6.87s2.57-3.5,4.47-4.6,4.07-1.65,6.51-1.65,4.47.5,6.3,1.49,3.27,2.42,4.31,4.29c1.05,1.86,1.57,4.09,1.57,6.66v1.67h-21.64c.1,3.17,1.07,5.62,2.9,7.34s4.14,2.59,6.92,2.59c2.37,0,4.21-.54,5.51-1.62,1.31-1.08,2.31-2.4,3-3.97l2.82,1.25c-.52,1.15-1.25,2.27-2.17,3.37-.92,1.1-2.12,2-3.58,2.72s-3.33,1.07-5.59,1.07ZM154.52,393.03h18.4c-.14-2.75-1.03-4.87-2.67-6.35-1.64-1.48-3.75-2.22-6.32-2.22s-4.65.74-6.32,2.22c-1.67,1.48-2.7,3.6-3.08,6.35Z"/>
      <path d="M183.84,407.77v-25.4h3.03v3.34h.63c.52-.94,1.36-1.82,2.51-2.64,1.15-.82,2.79-1.23,4.91-1.23s3.72.47,4.99,1.41c1.27.94,2.19,2.07,2.74,3.4h.63c.59-1.32,1.52-2.46,2.77-3.4,1.25-.94,3.01-1.41,5.28-1.41,1.74,0,3.26.36,4.55,1.07,1.29.71,2.3,1.71,3.03,2.98.73,1.27,1.1,2.76,1.1,4.47v17.4h-3.14v-17.09c0-1.81-.55-3.27-1.65-4.36s-2.64-1.65-4.63-1.65-3.71.65-5.07,1.96c-1.36,1.31-2.04,3.21-2.04,5.72v15.42h-3.14v-17.09c0-1.81-.55-3.27-1.65-4.36s-2.64-1.65-4.62-1.65-3.71.65-5.07,1.96c-1.36,1.31-2.04,3.21-2.04,5.72v15.42h-3.14Z"/>
      <path d="M230.46,377.98c-.77,0-1.41-.26-1.93-.78-.52-.52-.78-1.17-.78-1.93s.26-1.45.78-1.96c.52-.5,1.17-.76,1.93-.76s1.46.25,1.96.76c.5.51.76,1.16.76,1.96s-.25,1.41-.76,1.93c-.5.52-1.16.78-1.96.78ZM228.9,407.77v-25.4h3.14v25.4h-3.14Z"/>
      <path d="M241.23,407.77v-36.59h3.14v36.59h-3.14Z"/>
      <path d="M253.56,407.77v-36.59h3.14v36.59h-3.14Z"/>
      <path d="M277.61,408.5c-2.61,0-4.89-.55-6.82-1.65s-3.44-2.64-4.52-4.62-1.62-4.27-1.62-6.85v-.63c0-2.61.54-4.9,1.62-6.87s2.57-3.5,4.47-4.6,4.07-1.65,6.51-1.65,4.47.5,6.3,1.49,3.27,2.42,4.31,4.29c1.05,1.86,1.57,4.09,1.57,6.66v1.67h-21.64c.1,3.17,1.07,5.62,2.9,7.34s4.14,2.59,6.92,2.59c2.37,0,4.21-.54,5.51-1.62,1.31-1.08,2.31-2.4,3-3.97l2.82,1.25c-.52,1.15-1.25,2.27-2.17,3.37-.92,1.1-2.12,2-3.58,2.72s-3.33,1.07-5.59,1.07ZM267.83,393.03h18.4c-.14-2.75-1.03-4.87-2.67-6.35-1.64-1.48-3.75-2.22-6.32-2.22s-4.65.74-6.32,2.22c-1.67,1.48-2.7,3.6-3.08,6.35Z"/>
      <path d="M297.15,407.77v-25.4h3.03v3.19h.63c.49-1.15,1.21-1.99,2.17-2.51s2.29-.78,4-.78h2.98v2.93h-3.34c-1.92,0-3.45.54-4.6,1.62-1.15,1.08-1.72,2.77-1.72,5.07v15.89h-3.14Z"/>
      <path d="M327.1,408.5c-2.58,0-4.83-.55-6.77-1.65-1.93-1.1-3.43-2.63-4.49-4.6-1.06-1.97-1.59-4.26-1.59-6.87v-.63c0-2.61.53-4.9,1.59-6.87,1.06-1.97,2.56-3.5,4.49-4.6,1.93-1.1,4.19-1.65,6.77-1.65s4.83.55,6.77,1.65,3.43,2.63,4.5,4.6c1.06,1.97,1.59,4.26,1.59,6.87v.63c0,2.61-.53,4.9-1.59,6.87-1.06,1.97-2.56,3.5-4.5,4.6s-4.19,1.65-6.77,1.65ZM327.1,405.68c3,0,5.37-.95,7.11-2.85,1.74-1.9,2.61-4.42,2.61-7.55v-.42c0-3.14-.87-5.65-2.61-7.55-1.74-1.9-4.11-2.85-7.11-2.85s-5.32.95-7.08,2.85c-1.76,1.9-2.64,4.42-2.64,7.55v.42c0,3.14.88,5.65,2.64,7.55,1.76,1.9,4.12,2.85,7.08,2.85Z"/>
      <path d="M372.36,408.5c-2.27,0-4.32-.53-6.17-1.59-1.85-1.06-3.32-2.58-4.42-4.55s-1.65-4.29-1.65-6.98v-.63c0-2.68.54-5.01,1.62-6.98s2.55-3.48,4.42-4.55c1.86-1.06,3.93-1.59,6.19-1.59,1.88,0,3.47.25,4.76.76,1.29.51,2.34,1.15,3.16,1.93s1.46,1.61,1.91,2.48h.63v-15.63h3.14v36.59h-3.03v-4.65h-.63c-.73,1.39-1.87,2.64-3.42,3.74-1.55,1.1-3.72,1.65-6.51,1.65ZM373.09,405.68c2.89,0,5.24-.92,7.03-2.77,1.79-1.85,2.69-4.39,2.69-7.63v-.42c0-3.24-.9-5.78-2.69-7.63-1.79-1.85-4.14-2.77-7.03-2.77s-5.19.92-7,2.77c-1.81,1.85-2.72,4.39-2.72,7.63v.42c0,3.24.91,5.78,2.72,7.63,1.81,1.85,4.15,2.77,7,2.77Z"/>
      <path d="M406.86,408.5c-2.61,0-4.89-.55-6.82-1.65s-3.44-2.64-4.52-4.62-1.62-4.27-1.62-6.85v-.63c0-2.61.54-4.9,1.62-6.87s2.57-3.5,4.47-4.6,4.07-1.65,6.51-1.65,4.47.5,6.3,1.49,3.27,2.42,4.31,4.29c1.05,1.86,1.57,4.09,1.57,6.66v1.67h-21.64c.1,3.17,1.07,5.62,2.9,7.34s4.14,2.59,6.92,2.59c2.37,0,4.21-.54,5.51-1.62,1.31-1.08,2.31-2.4,3-3.97l2.82,1.25c-.52,1.15-1.25,2.27-2.17,3.37-.92,1.1-2.12,2-3.58,2.72s-3.33,1.07-5.59,1.07ZM397.08,393.03h18.4c-.14-2.75-1.03-4.87-2.67-6.35-1.64-1.48-3.75-2.22-6.32-2.22s-4.65.74-6.32,2.22c-1.67,1.48-2.7,3.6-3.08,6.35Z"/>
      <path d="M439.79,407.77v-36.59h22.11v3.03h-18.76v13.69h17.3v3.03h-17.3v13.8h18.97v3.03h-22.32Z"/>
      <path d="M467.54,407.77l10.61-12.91-10.24-12.49h3.92l8.31,10.4h.63l8.31-10.4h3.92l-10.24,12.49,10.61,12.91h-3.97l-8.62-10.82h-.63l-8.62,10.82h-3.97Z"/>
      <path d="M500.57,418.22v-35.85h3.03v4.65h.63c.73-1.39,1.87-2.64,3.42-3.74,1.55-1.1,3.72-1.65,6.51-1.65,2.26,0,4.32.53,6.17,1.59,1.85,1.06,3.32,2.57,4.42,4.52s1.65,4.29,1.65,7v.63c0,2.68-.54,5.01-1.62,6.98-1.08,1.97-2.54,3.48-4.39,4.55-1.85,1.06-3.92,1.59-6.22,1.59-1.85,0-3.42-.25-4.73-.76s-2.37-1.16-3.19-1.96c-.82-.8-1.46-1.62-1.91-2.46h-.63v14.9h-3.14ZM513.43,405.68c2.89,0,5.23-.92,7.03-2.77,1.79-1.85,2.69-4.39,2.69-7.63v-.42c0-3.24-.9-5.78-2.69-7.63-1.79-1.85-4.14-2.77-7.03-2.77s-5.19.92-7,2.77c-1.81,1.85-2.72,4.39-2.72,7.63v.42c0,3.24.91,5.78,2.72,7.63,1.81,1.85,4.15,2.77,7,2.77Z"/>
      <path d="M546.04,408.5c-2.61,0-4.89-.55-6.82-1.65s-3.44-2.64-4.52-4.62-1.62-4.27-1.62-6.85v-.63c0-2.61.54-4.9,1.62-6.87s2.57-3.5,4.47-4.6,4.07-1.65,6.51-1.65,4.47.5,6.3,1.49,3.27,2.42,4.31,4.29c1.05,1.86,1.57,4.09,1.57,6.66v1.67h-21.64c.1,3.17,1.07,5.62,2.9,7.34s4.14,2.59,6.92,2.59c2.37,0,4.21-.54,5.51-1.62,1.31-1.08,2.31-2.4,3-3.97l2.82,1.25c-.52,1.15-1.25,2.27-2.17,3.37-.92,1.1-2.12,2-3.58,2.72s-3.33,1.07-5.59,1.07ZM536.27,393.03h18.4c-.14-2.75-1.03-4.87-2.67-6.35-1.64-1.48-3.75-2.22-6.32-2.22s-4.65.74-6.32,2.22c-1.67,1.48-2.7,3.6-3.08,6.35Z"/>
      <path d="M565.59,407.77v-25.4h3.03v3.19h.63c.49-1.15,1.21-1.99,2.17-2.51s2.29-.78,4-.78h2.98v2.93h-3.34c-1.92,0-3.45.54-4.6,1.62-1.15,1.08-1.72,2.77-1.72,5.07v15.89h-3.14Z"/>
      <path d="M586.44,377.98c-.77,0-1.41-.26-1.93-.78-.52-.52-.78-1.17-.78-1.93s.26-1.45.78-1.96c.52-.5,1.17-.76,1.93-.76s1.46.25,1.96.76c.5.51.76,1.16.76,1.96s-.25,1.41-.76,1.93c-.5.52-1.16.78-1.96.78ZM584.87,407.77v-25.4h3.14v25.4h-3.14Z"/>
      <path d="M597.21,407.77v-25.4h3.03v3.34h.63c.52-.94,1.36-1.82,2.51-2.64,1.15-.82,2.79-1.23,4.91-1.23s3.72.47,4.99,1.41c1.27.94,2.19,2.07,2.74,3.4h.63c.59-1.32,1.52-2.46,2.77-3.4,1.25-.94,3.01-1.41,5.28-1.41,1.74,0,3.26.36,4.55,1.07,1.29.71,2.3,1.71,3.03,2.98.73,1.27,1.1,2.76,1.1,4.47v17.4h-3.14v-17.09c0-1.81-.55-3.27-1.65-4.36s-2.64-1.65-4.63-1.65-3.71.65-5.07,1.96c-1.36,1.31-2.04,3.21-2.04,5.72v15.42h-3.14v-17.09c0-1.81-.55-3.27-1.65-4.36s-2.64-1.65-4.62-1.65-3.71.65-5.07,1.96c-1.36,1.31-2.04,3.21-2.04,5.72v15.42h-3.14Z"/>
      <path d="M653.97,408.5c-2.61,0-4.89-.55-6.82-1.65s-3.44-2.64-4.52-4.62-1.62-4.27-1.62-6.85v-.63c0-2.61.54-4.9,1.62-6.87s2.57-3.5,4.47-4.6,4.07-1.65,6.51-1.65,4.47.5,6.3,1.49,3.27,2.42,4.31,4.29c1.05,1.86,1.57,4.09,1.57,6.66v1.67h-21.64c.1,3.17,1.07,5.62,2.9,7.34s4.14,2.59,6.92,2.59c2.37,0,4.21-.54,5.51-1.62,1.31-1.08,2.31-2.4,3-3.97l2.82,1.25c-.52,1.15-1.25,2.27-2.17,3.37-.92,1.1-2.12,2-3.58,2.72s-3.33,1.07-5.59,1.07ZM644.19,393.03h18.4c-.14-2.75-1.03-4.87-2.67-6.35-1.64-1.48-3.75-2.22-6.32-2.22s-4.65.74-6.32,2.22c-1.67,1.48-2.7,3.6-3.08,6.35Z"/>
      <path d="M673.51,407.77v-25.4h3.03v4.7h.63c.63-1.36,1.65-2.57,3.08-3.63,1.43-1.06,3.5-1.59,6.22-1.59,1.85,0,3.54.38,5.07,1.15,1.53.77,2.76,1.93,3.68,3.48s1.39,3.49,1.39,5.83v15.47h-3.14v-15.26c0-2.79-.7-4.79-2.09-6.01-1.39-1.22-3.26-1.83-5.59-1.83-2.61,0-4.79.86-6.53,2.59-1.74,1.72-2.61,4.33-2.61,7.81v12.7h-3.14Z"/>
      <path d="M713.97,407.77c-1.36,0-2.38-.35-3.06-1.04-.68-.7-1.02-1.67-1.02-2.93v-18.61h-8.15v-2.82h8.15v-9.51h3.14v9.51h8.88v2.82h-8.88v18.19c0,1.05.52,1.57,1.57,1.57h5.96v2.82h-6.59Z"/>
      <path d="M736.49,408.5c-1.78,0-3.39-.3-4.83-.91-1.45-.61-2.59-1.51-3.42-2.69-.84-1.18-1.25-2.61-1.25-4.29s.42-3.12,1.25-4.23,1.97-1.95,3.4-2.51c1.43-.56,3.01-.84,4.76-.84h9.3v-2.04c0-2.06-.59-3.66-1.78-4.81-1.18-1.15-2.91-1.72-5.17-1.72s-4,.55-5.31,1.65-2.19,2.57-2.64,4.42l-3.03-.89c.42-1.5,1.08-2.85,1.99-4.05s2.11-2.16,3.61-2.88c1.5-.71,3.29-1.07,5.38-1.07,3.21,0,5.69.84,7.45,2.51s2.64,4.01,2.64,7v12.33c0,1.05.49,1.57,1.46,1.57h2.46v2.72h-3.34c-1.08,0-1.93-.32-2.56-.97-.63-.64-.94-1.52-.94-2.64v-.37h-.52c-.45.77-1.04,1.52-1.75,2.25-.71.73-1.65,1.32-2.8,1.78-1.15.45-2.6.68-4.34.68ZM736.7,405.68c2.68,0,4.85-.81,6.51-2.43,1.65-1.62,2.48-3.91,2.48-6.87v-.63h-9.25c-1.81,0-3.32.39-4.52,1.18-1.2.78-1.8,2-1.8,3.63s.62,2.9,1.86,3.79c1.24.89,2.81,1.33,4.73,1.33Z"/>
      <path d="M769.53,408.5c-2.47,0-4.68-.53-6.61-1.59s-3.46-2.59-4.57-4.57c-1.12-1.99-1.67-4.32-1.67-7v-.52c0-2.72.56-5.06,1.67-7.03,1.11-1.97,2.64-3.48,4.57-4.55,1.93-1.06,4.14-1.59,6.61-1.59s4.5.46,6.19,1.38c1.69.92,3.01,2.13,3.97,3.61.96,1.48,1.56,3.04,1.8,4.68l-3.08.63c-.17-1.36-.61-2.6-1.31-3.74-.7-1.13-1.67-2.04-2.93-2.72-1.25-.68-2.81-1.02-4.65-1.02s-3.5.43-4.96,1.28c-1.46.85-2.62,2.06-3.48,3.61-.85,1.55-1.28,3.39-1.28,5.51v.42c0,2.12.43,3.96,1.28,5.51.85,1.55,2.01,2.75,3.48,3.61,1.46.85,3.12,1.28,4.96,1.28,2.79,0,4.91-.72,6.38-2.17,1.46-1.45,2.37-3.21,2.72-5.3l3.08.63c-.31,1.64-.97,3.2-1.96,4.68-.99,1.48-2.33,2.68-4.02,3.61s-3.75,1.38-6.19,1.38Z"/>
      <path d="M791.01,377.98c-.77,0-1.41-.26-1.93-.78-.52-.52-.78-1.17-.78-1.93s.26-1.45.78-1.96c.52-.5,1.17-.76,1.93-.76s1.46.25,1.96.76c.5.51.76,1.16.76,1.96s-.25,1.41-.76,1.93c-.5.52-1.16.78-1.96.78ZM789.44,407.77v-25.4h3.14v25.4h-3.14Z"/>
      <path d="M813.38,408.5c-2.58,0-4.83-.55-6.77-1.65-1.93-1.1-3.43-2.63-4.49-4.6-1.06-1.97-1.59-4.26-1.59-6.87v-.63c0-2.61.53-4.9,1.59-6.87,1.06-1.97,2.56-3.5,4.49-4.6,1.93-1.1,4.19-1.65,6.77-1.65s4.83.55,6.77,1.65,3.43,2.63,4.5,4.6c1.06,1.97,1.59,4.26,1.59,6.87v.63c0,2.61-.53,4.9-1.59,6.87-1.06,1.97-2.56,3.5-4.5,4.6s-4.19,1.65-6.77,1.65ZM813.38,405.68c3,0,5.37-.95,7.11-2.85,1.74-1.9,2.61-4.42,2.61-7.55v-.42c0-3.14-.87-5.65-2.61-7.55-1.74-1.9-4.11-2.85-7.11-2.85s-5.32.95-7.08,2.85c-1.76,1.9-2.64,4.42-2.64,7.55v.42c0,3.14.88,5.65,2.64,7.55,1.76,1.9,4.12,2.85,7.08,2.85ZM811.13,378.71l4.08-6.9h3.97l-4.81,6.9h-3.24Z"/>
      <path d="M834.18,407.77v-25.4h3.03v4.7h.63c.63-1.36,1.65-2.57,3.08-3.63,1.43-1.06,3.5-1.59,6.22-1.59,1.85,0,3.54.38,5.07,1.15,1.53.77,2.76,1.93,3.68,3.48s1.39,3.49,1.39,5.83v15.47h-3.14v-15.26c0-2.79-.7-4.79-2.09-6.01-1.39-1.22-3.26-1.83-5.59-1.83-2.61,0-4.79.86-6.53,2.59-1.74,1.72-2.61,4.33-2.61,7.81v12.7h-3.14Z"/>
      <path d="M891.36,408.5c-2.61,0-4.89-.55-6.82-1.65s-3.44-2.64-4.52-4.62-1.62-4.27-1.62-6.85v-.63c0-2.61.54-4.9,1.62-6.87s2.57-3.5,4.47-4.6,4.07-1.65,6.51-1.65,4.47.5,6.3,1.49,3.27,2.42,4.31,4.29c1.05,1.86,1.57,4.09,1.57,6.66v1.67h-21.64c.1,3.17,1.07,5.62,2.9,7.34s4.14,2.59,6.92,2.59c2.37,0,4.21-.54,5.51-1.62,1.31-1.08,2.31-2.4,3-3.97l2.82,1.25c-.52,1.15-1.25,2.27-2.17,3.37-.92,1.1-2.12,2-3.58,2.72s-3.33,1.07-5.59,1.07ZM881.58,393.03h18.4c-.14-2.75-1.03-4.87-2.67-6.35-1.64-1.48-3.75-2.22-6.32-2.22s-4.65.74-6.32,2.22c-1.67,1.48-2.7,3.6-3.08,6.35Z"/>
      <path d="M910.9,407.77v-25.4h3.03v4.7h.63c.63-1.36,1.65-2.57,3.08-3.63,1.43-1.06,3.5-1.59,6.22-1.59,1.85,0,3.54.38,5.07,1.15,1.53.77,2.76,1.93,3.68,3.48s1.39,3.49,1.39,5.83v15.47h-3.14v-15.26c0-2.79-.7-4.79-2.09-6.01-1.39-1.22-3.26-1.83-5.59-1.83-2.61,0-4.79.86-6.53,2.59-1.74,1.72-2.61,4.33-2.61,7.81v12.7h-3.14Z"/>
      <path d="M120.29,470.49v-36.59h6.64l14.95,34.6h.63v-34.6h3.34v36.59h-6.64l-14.95-34.65h-.63v34.65h-3.34Z"/>
      <path d="M162.73,471.22c-1.78,0-3.39-.3-4.83-.91-1.45-.61-2.59-1.51-3.42-2.69-.84-1.18-1.25-2.61-1.25-4.29s.42-3.12,1.25-4.23,1.97-1.95,3.4-2.51c1.43-.56,3.01-.84,4.76-.84h9.3v-2.04c0-2.06-.59-3.66-1.78-4.81-1.18-1.15-2.91-1.72-5.17-1.72s-4,.55-5.31,1.65-2.19,2.57-2.64,4.42l-3.03-.89c.42-1.5,1.08-2.85,1.99-4.05s2.11-2.16,3.61-2.88c1.5-.71,3.29-1.07,5.38-1.07,3.21,0,5.69.84,7.45,2.51s2.64,4.01,2.64,7v12.33c0,1.05.49,1.57,1.46,1.57h2.46v2.72h-3.34c-1.08,0-1.93-.32-2.56-.97-.63-.64-.94-1.52-.94-2.64v-.37h-.52c-.45.77-1.04,1.52-1.75,2.25-.71.73-1.65,1.32-2.8,1.78-1.15.45-2.6.68-4.34.68ZM162.94,468.4c2.68,0,4.85-.81,6.51-2.43,1.65-1.62,2.48-3.91,2.48-6.87v-.63h-9.25c-1.81,0-3.32.39-4.52,1.18-1.2.78-1.8,2-1.8,3.63s.62,2.9,1.86,3.79c1.24.89,2.81,1.33,4.73,1.33Z"/>
      <path d="M184.94,470.49v-25.4h3.03v3.19h.63c.49-1.15,1.21-1.99,2.17-2.51s2.29-.78,4-.78h2.98v2.93h-3.34c-1.92,0-3.45.54-4.6,1.62-1.15,1.08-1.72,2.77-1.72,5.07v15.89h-3.14Z"/>
      <path d="M204.23,470.49v-25.4h3.03v3.19h.63c.49-1.15,1.21-1.99,2.17-2.51s2.29-.78,4-.78h2.98v2.93h-3.34c-1.92,0-3.45.54-4.6,1.62-1.15,1.08-1.72,2.77-1.72,5.07v15.89h-3.14Z"/>
      <path d="M230.31,471.22c-1.78,0-3.39-.3-4.83-.91-1.45-.61-2.59-1.51-3.42-2.69-.84-1.18-1.25-2.61-1.25-4.29s.42-3.12,1.25-4.23,1.97-1.95,3.4-2.51c1.43-.56,3.01-.84,4.76-.84h9.3v-2.04c0-2.06-.59-3.66-1.78-4.81-1.18-1.15-2.91-1.72-5.17-1.72s-4,.55-5.31,1.65-2.19,2.57-2.64,4.42l-3.03-.89c.42-1.5,1.08-2.85,1.99-4.05s2.11-2.16,3.61-2.88c1.5-.71,3.29-1.07,5.38-1.07,3.21,0,5.69.84,7.45,2.51s2.64,4.01,2.64,7v12.33c0,1.05.49,1.57,1.46,1.57h2.46v2.72h-3.34c-1.08,0-1.93-.32-2.56-.97-.63-.64-.94-1.52-.94-2.64v-.37h-.52c-.45.77-1.04,1.52-1.75,2.25-.71.73-1.65,1.32-2.8,1.78-1.15.45-2.6.68-4.34.68ZM230.51,468.4c2.68,0,4.85-.81,6.51-2.43,1.65-1.62,2.48-3.91,2.48-6.87v-.63h-9.25c-1.81,0-3.32.39-4.52,1.18-1.2.78-1.8,2-1.8,3.63s.62,2.9,1.86,3.79c1.24.89,2.81,1.33,4.73,1.33Z"/>
      <path d="M260.15,470.49c-1.36,0-2.38-.35-3.06-1.04-.68-.7-1.02-1.67-1.02-2.93v-18.61h-8.15v-2.82h8.15v-9.51h3.14v9.51h8.88v2.82h-8.88v18.19c0,1.05.52,1.57,1.57,1.57h5.96v2.82h-6.59Z"/>
      <path d="M276.67,440.7c-.77,0-1.41-.26-1.93-.78-.52-.52-.78-1.17-.78-1.93s.26-1.45.78-1.96c.52-.5,1.17-.76,1.93-.76s1.46.25,1.96.76c.5.51.76,1.16.76,1.96s-.25,1.41-.76,1.93c-.5.52-1.16.78-1.96.78ZM275.1,470.49v-25.4h3.14v25.4h-3.14Z"/>
      <path d="M294.33,470.49l-9.51-25.4h3.34l8.36,23h.63l8.36-23h3.34l-9.51,25.4h-5.02Z"/>
      <path d="M322.34,471.22c-1.78,0-3.39-.3-4.83-.91-1.45-.61-2.59-1.51-3.42-2.69-.84-1.18-1.25-2.61-1.25-4.29s.42-3.12,1.25-4.23,1.97-1.95,3.4-2.51c1.43-.56,3.01-.84,4.76-.84h9.3v-2.04c0-2.06-.59-3.66-1.78-4.81-1.18-1.15-2.91-1.72-5.17-1.72s-4,.55-5.31,1.65-2.19,2.57-2.64,4.42l-3.03-.89c.42-1.5,1.08-2.85,1.99-4.05s2.11-2.16,3.61-2.88c1.5-.71,3.29-1.07,5.38-1.07,3.21,0,5.69.84,7.45,2.51s2.64,4.01,2.64,7v12.33c0,1.05.49,1.57,1.46,1.57h2.46v2.72h-3.34c-1.08,0-1.93-.32-2.56-.97-.63-.64-.94-1.52-.94-2.64v-.37h-.52c-.45.77-1.04,1.52-1.75,2.25-.71.73-1.65,1.32-2.8,1.78-1.15.45-2.6.68-4.34.68ZM322.55,468.4c2.68,0,4.85-.81,6.51-2.43,1.65-1.62,2.48-3.91,2.48-6.87v-.63h-9.25c-1.81,0-3.32.39-4.52,1.18-1.2.78-1.8,2-1.8,3.63s.62,2.9,1.86,3.79c1.24.89,2.81,1.33,4.73,1.33Z"/>
      <path d="M354.44,471.22c-3.07,0-5.69-.73-7.87-2.2-2.18-1.46-3.51-3.88-4-7.26l3.08-.58c.28,1.85.84,3.3,1.7,4.36.85,1.06,1.9,1.82,3.14,2.27,1.24.45,2.55.68,3.95.68,2.09,0,3.77-.43,5.04-1.28,1.27-.85,1.91-2.03,1.91-3.53s-.6-2.59-1.8-3.19-2.8-1.06-4.78-1.41l-2.4-.42c-1.6-.28-3.05-.71-4.34-1.28-1.29-.58-2.31-1.35-3.06-2.33-.75-.98-1.12-2.2-1.12-3.66,0-2.2.86-3.92,2.59-5.17,1.73-1.25,4.02-1.88,6.87-1.88s5.22.65,6.98,1.96c1.76,1.31,2.87,3.2,3.32,5.67l-2.93.63c-.35-2.02-1.18-3.45-2.48-4.29-1.31-.84-2.94-1.25-4.89-1.25s-3.45.37-4.6,1.1c-1.15.73-1.72,1.81-1.72,3.24s.52,2.41,1.57,3.06c1.04.65,2.47,1.12,4.29,1.44l2.4.42c1.74.28,3.31.69,4.7,1.23s2.5,1.3,3.32,2.27c.82.98,1.23,2.27,1.23,3.87,0,2.4-.91,4.26-2.72,5.57-1.81,1.31-4.27,1.96-7.37,1.96Z"/>
      <path d="M383.34,470.49v-3.03h5.23v-30.52h-5.23v-3.03h13.9c4.77,0,8.49,1.21,11.16,3.63,2.67,2.42,4,6.19,4,11.32v6.74c0,5.12-1.33,8.88-4,11.29-2.67,2.4-6.39,3.61-11.16,3.61h-13.9ZM391.91,467.46h5.33c3.83,0,6.76-.92,8.78-2.77,2.02-1.85,3.03-4.83,3.03-8.94v-7.06c0-4.15-1.01-7.13-3.03-8.96-2.02-1.83-4.95-2.74-8.78-2.74h-5.33v30.47Z"/>
      <path d="M421.6,440.7c-.77,0-1.41-.26-1.93-.78-.52-.52-.78-1.17-.78-1.93s.26-1.45.78-1.96c.52-.5,1.17-.76,1.93-.76s1.46.25,1.96.76c.5.51.76,1.16.76,1.96s-.25,1.41-.76,1.93c-.5.52-1.16.78-1.96.78ZM420.03,470.49v-25.4h3.14v25.4h-3.14Z"/>
      <path d="M431.11,457.89v-.63c0-2.68.55-4.98,1.65-6.9s2.57-3.4,4.42-4.44c1.85-1.05,3.9-1.57,6.17-1.57,2.79,0,4.96.55,6.51,1.65,1.55,1.1,2.69,2.34,3.42,3.74h.63v-4.65h2.93v31.88c0,1.25-.33,2.23-.99,2.93-.66.7-1.67,1.04-3.03,1.04h-17.35v-2.82h16.73c1.08,0,1.62-.52,1.62-1.57v-10.92h-.63c-.45.84-1.09,1.66-1.91,2.46-.82.8-1.87,1.46-3.16,1.96s-2.87.76-4.76.76c-2.27,0-4.33-.52-6.19-1.57-1.86-1.05-3.34-2.54-4.42-4.47-1.08-1.93-1.62-4.22-1.62-6.87ZM444.07,467.98c2.89,0,5.24-.91,7.03-2.72,1.79-1.81,2.69-4.3,2.69-7.47v-.42c0-3.21-.9-5.71-2.69-7.5-1.79-1.79-4.14-2.69-7.03-2.69s-5.19.9-7,2.69c-1.81,1.79-2.72,4.29-2.72,7.5v.42c0,3.17.91,5.66,2.72,7.47,1.81,1.81,4.15,2.72,7,2.72Z"/>
      <path d="M467.59,440.7c-.77,0-1.41-.26-1.93-.78-.52-.52-.78-1.17-.78-1.93s.26-1.45.78-1.96c.52-.5,1.17-.76,1.93-.76s1.46.25,1.96.76c.5.51.76,1.16.76,1.96s-.25,1.41-.76,1.93c-.5.52-1.16.78-1.96.78ZM466.02,470.49v-25.4h3.14v25.4h-3.14Z"/>
      <path d="M487.55,470.49c-1.36,0-2.38-.35-3.06-1.04-.68-.7-1.02-1.67-1.02-2.93v-18.61h-8.15v-2.82h8.15v-9.51h3.14v9.51h8.88v2.82h-8.88v18.19c0,1.05.52,1.57,1.57,1.57h5.96v2.82h-6.59Z"/>
      <path d="M510.08,471.22c-1.78,0-3.39-.3-4.83-.91-1.45-.61-2.59-1.51-3.42-2.69-.84-1.18-1.25-2.61-1.25-4.29s.42-3.12,1.25-4.23,1.97-1.95,3.4-2.51c1.43-.56,3.01-.84,4.76-.84h9.3v-2.04c0-2.06-.59-3.66-1.78-4.81-1.18-1.15-2.91-1.72-5.17-1.72s-4,.55-5.31,1.65-2.19,2.57-2.64,4.42l-3.03-.89c.42-1.5,1.08-2.85,1.99-4.05s2.11-2.16,3.61-2.88c1.5-.71,3.29-1.07,5.38-1.07,3.21,0,5.69.84,7.45,2.51s2.64,4.01,2.64,7v12.33c0,1.05.49,1.57,1.46,1.57h2.46v2.72h-3.34c-1.08,0-1.93-.32-2.56-.97-.63-.64-.94-1.52-.94-2.64v-.37h-.52c-.45.77-1.04,1.52-1.75,2.25-.71.73-1.65,1.32-2.8,1.78-1.15.45-2.6.68-4.34.68ZM510.29,468.4c2.68,0,4.85-.81,6.51-2.43,1.65-1.62,2.48-3.91,2.48-6.87v-.63h-9.25c-1.81,0-3.32.39-4.52,1.18-1.2.78-1.8,2-1.8,3.63s.62,2.9,1.86,3.79c1.24.89,2.81,1.33,4.73,1.33Z"/>
      <path d="M532.29,470.49v-36.59h3.14v36.59h-3.14Z"/>
      <path d="M556.33,471.22c-2.61,0-4.89-.55-6.82-1.65s-3.44-2.64-4.52-4.62-1.62-4.27-1.62-6.85v-.63c0-2.61.54-4.9,1.62-6.87s2.57-3.5,4.47-4.6,4.07-1.65,6.51-1.65,4.47.5,6.3,1.49,3.27,2.42,4.31,4.29c1.05,1.86,1.57,4.09,1.57,6.66v1.67h-21.64c.1,3.17,1.07,5.62,2.9,7.34s4.14,2.59,6.92,2.59c2.37,0,4.21-.54,5.51-1.62,1.31-1.08,2.31-2.4,3-3.97l2.82,1.25c-.52,1.15-1.25,2.27-2.17,3.37-.92,1.1-2.12,2-3.58,2.72s-3.33,1.07-5.59,1.07ZM546.56,455.75h18.4c-.14-2.75-1.03-4.87-2.67-6.35-1.64-1.48-3.75-2.22-6.32-2.22s-4.65.74-6.32,2.22c-1.67,1.48-2.7,3.6-3.08,6.35Z"/>
      <path d="M585.97,471.22c-3.07,0-5.69-.73-7.87-2.2-2.18-1.46-3.51-3.88-4-7.26l3.08-.58c.28,1.85.84,3.3,1.7,4.36.85,1.06,1.9,1.82,3.14,2.27,1.24.45,2.55.68,3.95.68,2.09,0,3.77-.43,5.04-1.28,1.27-.85,1.91-2.03,1.91-3.53s-.6-2.59-1.8-3.19-2.8-1.06-4.78-1.41l-2.4-.42c-1.6-.28-3.05-.71-4.34-1.28-1.29-.58-2.31-1.35-3.06-2.33-.75-.98-1.12-2.2-1.12-3.66,0-2.2.86-3.92,2.59-5.17,1.73-1.25,4.02-1.88,6.87-1.88s5.22.65,6.98,1.96c1.76,1.31,2.87,3.2,3.32,5.67l-2.93.63c-.35-2.02-1.18-3.45-2.48-4.29-1.31-.84-2.94-1.25-4.89-1.25s-3.45.37-4.6,1.1c-1.15.73-1.72,1.81-1.72,3.24s.52,2.41,1.57,3.06c1.04.65,2.47,1.12,4.29,1.44l2.4.42c1.74.28,3.31.69,4.7,1.23s2.5,1.3,3.32,2.27c.82.98,1.23,2.27,1.23,3.87,0,2.4-.91,4.26-2.72,5.57-1.81,1.31-4.27,1.96-7.37,1.96Z"/>
      <path d="M613.1,470.49l11.97-36.59h5.96l11.97,36.59h-3.5l-3.14-9.72h-16.62l-3.14,9.72h-3.5ZM620.67,457.74h14.74l-7.06-21.85h-.63l-7.06,21.85Z"/>
      <path d="M649.05,470.49v-36.59h3.14v36.59h-3.14Z"/>
      <path d="M660.13,457.89v-.63c0-2.68.55-4.98,1.65-6.9s2.57-3.4,4.42-4.44c1.85-1.05,3.9-1.57,6.17-1.57,2.79,0,4.96.55,6.51,1.65,1.55,1.1,2.69,2.34,3.42,3.74h.63v-4.65h2.93v31.88c0,1.25-.33,2.23-.99,2.93-.66.7-1.67,1.04-3.03,1.04h-17.35v-2.82h16.73c1.08,0,1.62-.52,1.62-1.57v-10.92h-.63c-.45.84-1.09,1.66-1.91,2.46-.82.8-1.87,1.46-3.16,1.96s-2.87.76-4.76.76c-2.27,0-4.33-.52-6.19-1.57-1.86-1.05-3.34-2.54-4.42-4.47-1.08-1.93-1.62-4.22-1.62-6.87ZM673.1,467.98c2.89,0,5.24-.91,7.03-2.72,1.79-1.81,2.69-4.3,2.69-7.47v-.42c0-3.21-.9-5.71-2.69-7.5-1.79-1.79-4.14-2.69-7.03-2.69s-5.19.9-7,2.69c-1.81,1.79-2.72,4.29-2.72,7.5v.42c0,3.17.91,5.66,2.72,7.47,1.81,1.81,4.15,2.72,7,2.72Z"/>
      <path d="M706.65,471.22c-2.58,0-4.83-.55-6.77-1.65-1.93-1.1-3.43-2.63-4.49-4.6-1.06-1.97-1.59-4.26-1.59-6.87v-.63c0-2.61.53-4.9,1.59-6.87,1.06-1.97,2.56-3.5,4.49-4.6,1.93-1.1,4.19-1.65,6.77-1.65s4.83.55,6.77,1.65,3.43,2.63,4.5,4.6c1.06,1.97,1.59,4.26,1.59,6.87v.63c0,2.61-.53,4.9-1.59,6.87-1.06,1.97-2.56,3.5-4.5,4.6s-4.19,1.65-6.77,1.65ZM706.65,468.4c3,0,5.37-.95,7.11-2.85,1.74-1.9,2.61-4.42,2.61-7.55v-.42c0-3.14-.87-5.65-2.61-7.55-1.74-1.9-4.11-2.85-7.11-2.85s-5.32.95-7.08,2.85c-1.76,1.9-2.64,4.42-2.64,7.55v.42c0,3.14.88,5.65,2.64,7.55,1.76,1.9,4.12,2.85,7.08,2.85Z"/>
      <path d="M727.45,470.49v-25.4h3.03v3.19h.63c.49-1.15,1.21-1.99,2.17-2.51s2.29-.78,4-.78h2.98v2.93h-3.34c-1.92,0-3.45.54-4.6,1.62-1.15,1.08-1.72,2.77-1.72,5.07v15.89h-3.14Z"/>
      <path d="M746.06,441.43l4.08-6.9h3.97l-4.81,6.9h-3.24ZM746.74,470.49v-25.4h3.14v25.4h-3.14Z"/>
      <path d="M768.27,470.49c-1.36,0-2.38-.35-3.06-1.04-.68-.7-1.02-1.67-1.02-2.93v-18.61h-8.15v-2.82h8.15v-9.51h3.14v9.51h8.88v2.82h-8.88v18.19c0,1.05.52,1.57,1.57,1.57h5.96v2.82h-6.59Z"/>
      <path d="M783.22,470.49v-25.4h3.03v3.34h.63c.52-.94,1.36-1.82,2.51-2.64,1.15-.82,2.79-1.23,4.91-1.23s3.72.47,4.99,1.41c1.27.94,2.19,2.07,2.74,3.4h.63c.59-1.32,1.52-2.46,2.77-3.4,1.25-.94,3.01-1.41,5.28-1.41,1.74,0,3.26.36,4.55,1.07,1.29.71,2.3,1.71,3.03,2.98.73,1.27,1.1,2.76,1.1,4.47v17.4h-3.14v-17.09c0-1.81-.55-3.27-1.65-4.36s-2.64-1.65-4.63-1.65-3.71.65-5.07,1.96c-1.36,1.31-2.04,3.21-2.04,5.72v15.42h-3.14v-17.09c0-1.81-.55-3.27-1.65-4.36s-2.64-1.65-4.62-1.65-3.71.65-5.07,1.96c-1.36,1.31-2.04,3.21-2.04,5.72v15.42h-3.14Z"/>
      <path d="M829.84,440.7c-.77,0-1.41-.26-1.93-.78-.52-.52-.78-1.17-.78-1.93s.26-1.45.78-1.96c.52-.5,1.17-.76,1.93-.76s1.46.25,1.96.76c.5.51.76,1.16.76,1.96s-.25,1.41-.76,1.93c-.5.52-1.16.78-1.96.78ZM828.27,470.49v-25.4h3.14v25.4h-3.14Z"/>
      <path d="M852.21,471.22c-2.47,0-4.68-.53-6.61-1.59s-3.46-2.59-4.57-4.57c-1.12-1.99-1.67-4.32-1.67-7v-.52c0-2.72.56-5.06,1.67-7.03,1.11-1.97,2.64-3.48,4.57-4.55,1.93-1.06,4.14-1.59,6.61-1.59s4.5.46,6.19,1.38c1.69.92,3.01,2.13,3.97,3.61.96,1.48,1.56,3.04,1.8,4.68l-3.08.63c-.17-1.36-.61-2.6-1.31-3.74-.7-1.13-1.67-2.04-2.93-2.72-1.25-.68-2.81-1.02-4.65-1.02s-3.5.43-4.96,1.28c-1.46.85-2.62,2.06-3.48,3.61-.85,1.55-1.28,3.39-1.28,5.51v.42c0,2.12.43,3.96,1.28,5.51.85,1.55,2.01,2.75,3.48,3.61,1.46.85,3.12,1.28,4.96,1.28,2.79,0,4.91-.72,6.38-2.17,1.46-1.45,2.37-3.21,2.72-5.3l3.08.63c-.31,1.64-.97,3.2-1.96,4.68-.99,1.48-2.33,2.68-4.02,3.61s-3.75,1.38-6.19,1.38Z"/>
      <path d="M879.91,471.22c-1.78,0-3.39-.3-4.83-.91-1.45-.61-2.59-1.51-3.42-2.69-.84-1.18-1.25-2.61-1.25-4.29s.42-3.12,1.25-4.23,1.97-1.95,3.4-2.51c1.43-.56,3.01-.84,4.76-.84h9.3v-2.04c0-2.06-.59-3.66-1.78-4.81-1.18-1.15-2.91-1.72-5.17-1.72s-4,.55-5.31,1.65-2.19,2.57-2.64,4.42l-3.03-.89c.42-1.5,1.08-2.85,1.99-4.05s2.11-2.16,3.61-2.88c1.5-.71,3.29-1.07,5.38-1.07,3.21,0,5.69.84,7.45,2.51s2.64,4.01,2.64,7v12.33c0,1.05.49,1.57,1.46,1.57h2.46v2.72h-3.34c-1.08,0-1.93-.32-2.56-.97-.63-.64-.94-1.52-.94-2.64v-.37h-.52c-.45.77-1.04,1.52-1.75,2.25-.71.73-1.65,1.32-2.8,1.78-1.15.45-2.6.68-4.34.68ZM880.12,468.4c2.68,0,4.85-.81,6.51-2.43,1.65-1.62,2.48-3.91,2.48-6.87v-.63h-9.25c-1.81,0-3.32.39-4.52,1.18-1.2.78-1.8,2-1.8,3.63s.62,2.9,1.86,3.79c1.24.89,2.81,1.33,4.73,1.33Z"/>
      <path d="M912,471.22c-3.07,0-5.69-.73-7.87-2.2-2.18-1.46-3.51-3.88-4-7.26l3.08-.58c.28,1.85.84,3.3,1.7,4.36.85,1.06,1.9,1.82,3.14,2.27,1.24.45,2.55.68,3.95.68,2.09,0,3.77-.43,5.04-1.28,1.27-.85,1.91-2.03,1.91-3.53s-.6-2.59-1.8-3.19-2.8-1.06-4.78-1.41l-2.4-.42c-1.6-.28-3.05-.71-4.34-1.28-1.29-.58-2.31-1.35-3.06-2.33-.75-.98-1.12-2.2-1.12-3.66,0-2.2.86-3.92,2.59-5.17,1.73-1.25,4.02-1.88,6.87-1.88s5.22.65,6.98,1.96c1.76,1.31,2.87,3.2,3.32,5.67l-2.93.63c-.35-2.02-1.18-3.45-2.48-4.29-1.31-.84-2.94-1.25-4.89-1.25s-3.45.37-4.6,1.1c-1.15.73-1.72,1.81-1.72,3.24s.52,2.41,1.57,3.06c1.04.65,2.47,1.12,4.29,1.44l2.4.42c1.74.28,3.31.69,4.7,1.23s2.5,1.3,3.32,2.27c.82.98,1.23,2.27,1.23,3.87,0,2.4-.91,4.26-2.72,5.57-1.81,1.31-4.27,1.96-7.37,1.96Z"/>
    </g>
    <line class="cls-1" x1="119" y1="414" x2="145" y2="414"/>
    <line class="cls-1" x1="440" y1="414" x2="462" y2="414"/>
    <line class="cls-1" x1="120" y1="476" x2="146" y2="476"/>
    <line class="cls-1" x1="383" y1="476" x2="412" y2="476"/>
    <line class="cls-1" x1="613" y1="476" x2="643" y2="476"/>
  </g>
  <g id="Capa_3" data-name="Capa 3">
    <rect x="120" y="296" width="44" height="44"/>
    <rect x="163" y="296" width="44" height="44"/>
    <rect x="163" y="254" width="44" height="44"/>
    <rect x="163" y="210" width="44" height="44"/>
    <rect x="163" y="167" width="44" height="44"/>
    <rect x="291" y="254" width="44" height="44"/>
    <rect x="291" y="210" width="44" height="44"/>
    <rect x="464" y="167" width="44" height="44"/>
    <rect x="464" y="210" width="44" height="44"/>
    <rect x="464" y="253" width="44" height="44"/>
    <rect x="464" y="296" width="44" height="44"/>
    <rect x="507" y="167" width="44" height="44"/>
    <rect x="550" y="210" width="44" height="44"/>
    <rect x="636" y="210" width="44" height="44"/>
    <rect x="636" y="253" width="44" height="44"/>
    <rect x="679" y="296" width="44" height="44"/>
    <rect x="636" y="167" width="44" height="44"/>
    <rect x="679" y="167" width="44" height="44"/>
    <rect x="722" y="167" width="44" height="44"/>
    <rect x="808" y="253" width="44" height="44"/>
    <rect x="808" y="296" width="44" height="44"/>
    <rect x="851" y="296" width="44" height="44"/>
    <rect x="851" y="167" width="44" height="44"/>
    <rect x="894" y="167" width="44" height="44"/>
    <rect x="894" y="210" width="44" height="44"/>
    <rect x="894" y="253" width="44" height="44"/>
    <rect x="722" y="211" width="44" height="44"/>
    <rect x="722" y="253" width="44" height="44"/>
    <rect x="722" y="296" width="44" height="44"/>
    <rect x="722" y="124" width="44" height="44"/>
    <rect x="550" y="254" width="44" height="44"/>
    <rect x="550" y="296" width="44" height="44"/>
    <rect x="335" y="167" width="44" height="44"/>
    <rect x="335" y="296" width="44" height="44"/>
    <rect x="378" y="296" width="44" height="44"/>
    <rect x="378" y="210" width="44" height="44"/>
    <rect x="206" y="167" width="44" height="44"/>
  </g>
</svg>